<?xml version="1.0" encoding="UTF-8" standalone="no"?>
<!DOCTYPE svg PUBLIC "-//W3C//DTD SVG 1.1//EN"
 "http://www.w3.org/Graphics/SVG/1.1/DTD/svg11.dtd">
<!-- Generated by graphviz version 2.47.3 (20210619.1520)
 -->
<!-- Title: dependencies Pages: 1 -->
<svg width="2253pt" height="247pt"
 viewBox="0.00 0.00 2253.00 246.80" xmlns="http://www.w3.org/2000/svg" xmlns:xlink="http://www.w3.org/1999/xlink">
<g id="graph0" class="graph" transform="scale(1 1) rotate(0) translate(4 242.8)">
<title>dependencies</title>
<polygon fill="white" stroke="transparent" points="-4,4 -4,-242.8 2249,-242.8 2249,4 -4,4"/>
<text text-anchor="middle" x="1122.5" y="-8.2" font-family="sans-serif" font-size="14.00">dependencies</text>
<g id="clust1" class="cluster">
<title>cluster_AppModule</title>
<polygon fill="none" stroke="black" stroke-dasharray="1,5" points="8,-32.8 8,-230.8 2237,-230.8 2237,-32.8 8,-32.8"/>
</g>
<g id="clust2" class="cluster">
<title>cluster_AppModule_declarations</title>
<polygon fill="none" stroke="black" points="168,-40.8 168,-92.8 2229,-92.8 2229,-40.8 168,-40.8"/>
</g>
<g id="clust19" class="cluster">
<title>cluster_AppModule_bootstrap</title>
<polygon fill="none" stroke="black" points="1018,-170.8 1018,-222.8 1142,-222.8 1142,-170.8 1018,-170.8"/>
</g>
<g id="clust17" class="cluster">
<title>cluster_AppModule_imports</title>
<polygon fill="none" stroke="black" points="16,-40.8 16,-92.8 160,-92.8 160,-40.8 16,-40.8"/>
</g>
<!-- AppComponent -->
<g id="node1" class="node">
<title>AppComponent</title>
<polygon fill="#ffffb3" stroke="black" points="2220.94,-84.8 2115.06,-84.8 2115.06,-48.8 2220.94,-48.8 2220.94,-84.8"/>
<text text-anchor="middle" x="2168" y="-62.6" font-family="Times,serif" font-size="14.00">AppComponent</text>
</g>
<!-- AppModule -->
<g id="node15" class="node">
<title>AppModule</title>
<polygon fill="#8dd3c7" stroke="black" points="1121.66,-149.8 1118.66,-153.8 1097.66,-153.8 1094.66,-149.8 1038.34,-149.8 1038.34,-113.8 1121.66,-113.8 1121.66,-149.8"/>
<text text-anchor="middle" x="1080" y="-127.6" font-family="Times,serif" font-size="14.00">AppModule</text>
</g>
<!-- AppComponent&#45;&gt;AppModule -->
<g id="edge1" class="edge">
<title>AppComponent&#45;&gt;AppModule</title>
<path fill="none" stroke="black" d="M2168,-85.12C2168,-108.46 2168,-145.8 2168,-145.8 2168,-145.8 1131.98,-145.8 1131.98,-145.8"/>
<polygon fill="black" stroke="black" points="1131.98,-142.3 1121.98,-145.8 1131.98,-149.3 1131.98,-142.3"/>
</g>
<!-- ContatosComponent -->
<g id="node2" class="node">
<title>ContatosComponent</title>
<polygon fill="#ffffb3" stroke="black" points="2097.61,-84.8 1966.39,-84.8 1966.39,-48.8 2097.61,-48.8 2097.61,-84.8"/>
<text text-anchor="middle" x="2032" y="-62.6" font-family="Times,serif" font-size="14.00">ContatosComponent</text>
</g>
<!-- ContatosComponent&#45;&gt;AppModule -->
<g id="edge2" class="edge">
<title>ContatosComponent&#45;&gt;AppModule</title>
<path fill="none" stroke="black" d="M2032,-85.09C2032,-107.01 2032,-140.8 2032,-140.8 2032,-140.8 1131.83,-140.8 1131.83,-140.8"/>
<polygon fill="black" stroke="black" points="1131.83,-137.3 1121.83,-140.8 1131.83,-144.3 1131.83,-137.3"/>
</g>
<!-- DashboardComponent -->
<g id="node3" class="node">
<title>DashboardComponent</title>
<polygon fill="#ffffb3" stroke="black" points="1947.97,-84.8 1806.03,-84.8 1806.03,-48.8 1947.97,-48.8 1947.97,-84.8"/>
<text text-anchor="middle" x="1877" y="-62.6" font-family="Times,serif" font-size="14.00">DashboardComponent</text>
</g>
<!-- DashboardComponent&#45;&gt;AppModule -->
<g id="edge3" class="edge">
<title>DashboardComponent&#45;&gt;AppModule</title>
<path fill="none" stroke="black" d="M1877,-84.83C1877,-105.57 1877,-136.8 1877,-136.8 1877,-136.8 1131.73,-136.8 1131.73,-136.8"/>
<polygon fill="black" stroke="black" points="1131.73,-133.3 1121.73,-136.8 1131.73,-140.3 1131.73,-133.3"/>
</g>
<!-- DateTimeFormatPipe -->
<g id="node4" class="node">
<title>DateTimeFormatPipe</title>
<polygon fill="#ffffb3" stroke="black" points="1787.8,-84.8 1650.2,-84.8 1650.2,-48.8 1787.8,-48.8 1787.8,-84.8"/>
<text text-anchor="middle" x="1719" y="-62.6" font-family="Times,serif" font-size="14.00">DateTimeFormatPipe</text>
</g>
<!-- DateTimeFormatPipe&#45;&gt;AppModule -->
<g id="edge4" class="edge">
<title>DateTimeFormatPipe&#45;&gt;AppModule</title>
<path fill="none" stroke="black" d="M1719,-84.91C1719,-104.14 1719,-131.8 1719,-131.8 1719,-131.8 1131.93,-131.8 1131.93,-131.8"/>
<polygon fill="black" stroke="black" points="1131.93,-128.3 1121.93,-131.8 1131.93,-135.3 1131.93,-128.3"/>
</g>
<!-- EventoDetalheComponent -->
<g id="node5" class="node">
<title>EventoDetalheComponent</title>
<polygon fill="#ffffb3" stroke="black" points="1632.02,-84.8 1467.98,-84.8 1467.98,-48.8 1632.02,-48.8 1632.02,-84.8"/>
<text text-anchor="middle" x="1550" y="-62.6" font-family="Times,serif" font-size="14.00">EventoDetalheComponent</text>
</g>
<!-- EventoDetalheComponent&#45;&gt;AppModule -->
<g id="edge5" class="edge">
<title>EventoDetalheComponent&#45;&gt;AppModule</title>
<path fill="none" stroke="black" d="M1550,-85.1C1550,-103.07 1550,-127.8 1550,-127.8 1550,-127.8 1131.71,-127.8 1131.71,-127.8"/>
<polygon fill="black" stroke="black" points="1131.71,-124.3 1121.71,-127.8 1131.71,-131.3 1131.71,-124.3"/>
</g>
<!-- EventoListaComponent -->
<g id="node6" class="node">
<title>EventoListaComponent</title>
<polygon fill="#ffffb3" stroke="black" points="1449.48,-84.8 1300.52,-84.8 1300.52,-48.8 1449.48,-48.8 1449.48,-84.8"/>
<text text-anchor="middle" x="1375" y="-62.6" font-family="Times,serif" font-size="14.00">EventoListaComponent</text>
</g>
<!-- EventoListaComponent&#45;&gt;AppModule -->
<g id="edge6" class="edge">
<title>EventoListaComponent&#45;&gt;AppModule</title>
<path fill="none" stroke="black" d="M1375,-84.83C1375,-101.2 1375,-122.8 1375,-122.8 1375,-122.8 1131.95,-122.8 1131.95,-122.8"/>
<polygon fill="black" stroke="black" points="1131.95,-119.3 1121.95,-122.8 1131.95,-126.3 1131.95,-119.3"/>
</g>
<!-- EventosComponent -->
<g id="node7" class="node">
<title>EventosComponent</title>
<polygon fill="#ffffb3" stroke="black" points="1282.44,-84.8 1155.56,-84.8 1155.56,-48.8 1282.44,-48.8 1282.44,-84.8"/>
<text text-anchor="middle" x="1219" y="-62.6" font-family="Times,serif" font-size="14.00">EventosComponent</text>
</g>
<!-- EventosComponent&#45;&gt;AppModule -->
<g id="edge7" class="edge">
<title>EventosComponent&#45;&gt;AppModule</title>
<path fill="none" stroke="black" d="M1219,-84.99C1219,-99.98 1219,-118.8 1219,-118.8 1219,-118.8 1131.7,-118.8 1131.7,-118.8"/>
<polygon fill="black" stroke="black" points="1131.7,-115.3 1121.7,-118.8 1131.7,-122.3 1131.7,-115.3"/>
</g>
<!-- LoginComponent -->
<g id="node8" class="node">
<title>LoginComponent</title>
<polygon fill="#ffffb3" stroke="black" points="1137.28,-84.8 1022.72,-84.8 1022.72,-48.8 1137.28,-48.8 1137.28,-84.8"/>
<text text-anchor="middle" x="1080" y="-62.6" font-family="Times,serif" font-size="14.00">LoginComponent</text>
</g>
<!-- LoginComponent&#45;&gt;AppModule -->
<g id="edge8" class="edge">
<title>LoginComponent&#45;&gt;AppModule</title>
<path fill="none" stroke="black" d="M1080,-84.91C1080,-84.91 1080,-103.79 1080,-103.79"/>
<polygon fill="black" stroke="black" points="1076.5,-103.79 1080,-113.79 1083.5,-103.79 1076.5,-103.79"/>
</g>
<!-- NavComponent -->
<g id="node9" class="node">
<title>NavComponent</title>
<polygon fill="#ffffb3" stroke="black" points="1004.15,-84.8 899.85,-84.8 899.85,-48.8 1004.15,-48.8 1004.15,-84.8"/>
<text text-anchor="middle" x="952" y="-62.6" font-family="Times,serif" font-size="14.00">NavComponent</text>
</g>
<!-- NavComponent&#45;&gt;AppModule -->
<g id="edge9" class="edge">
<title>NavComponent&#45;&gt;AppModule</title>
<path fill="none" stroke="black" d="M952,-84.99C952,-99.98 952,-118.8 952,-118.8 952,-118.8 1028.09,-118.8 1028.09,-118.8"/>
<polygon fill="black" stroke="black" points="1028.09,-122.3 1038.09,-118.8 1028.09,-115.3 1028.09,-122.3"/>
</g>
<!-- PalestrantesComponent -->
<g id="node10" class="node">
<title>PalestrantesComponent</title>
<polygon fill="#ffffb3" stroke="black" points="882.2,-84.8 733.8,-84.8 733.8,-48.8 882.2,-48.8 882.2,-84.8"/>
<text text-anchor="middle" x="808" y="-62.6" font-family="Times,serif" font-size="14.00">PalestrantesComponent</text>
</g>
<!-- PalestrantesComponent&#45;&gt;AppModule -->
<g id="edge10" class="edge">
<title>PalestrantesComponent&#45;&gt;AppModule</title>
<path fill="none" stroke="black" d="M808,-84.83C808,-101.2 808,-122.8 808,-122.8 808,-122.8 1028.1,-122.8 1028.1,-122.8"/>
<polygon fill="black" stroke="black" points="1028.1,-126.3 1038.1,-122.8 1028.1,-119.3 1028.1,-126.3"/>
</g>
<!-- PerfilComponent -->
<g id="node11" class="node">
<title>PerfilComponent</title>
<polygon fill="#ffffb3" stroke="black" points="716.43,-84.8 603.57,-84.8 603.57,-48.8 716.43,-48.8 716.43,-84.8"/>
<text text-anchor="middle" x="660" y="-62.6" font-family="Times,serif" font-size="14.00">PerfilComponent</text>
</g>
<!-- PerfilComponent&#45;&gt;AppModule -->
<g id="edge11" class="edge">
<title>PerfilComponent&#45;&gt;AppModule</title>
<path fill="none" stroke="black" d="M660,-85.1C660,-103.07 660,-127.8 660,-127.8 660,-127.8 1028.19,-127.8 1028.19,-127.8"/>
<polygon fill="black" stroke="black" points="1028.19,-131.3 1038.19,-127.8 1028.19,-124.3 1028.19,-131.3"/>
</g>
<!-- RegistrationComponent -->
<g id="node12" class="node">
<title>RegistrationComponent</title>
<polygon fill="#ffffb3" stroke="black" points="585.77,-84.8 436.23,-84.8 436.23,-48.8 585.77,-48.8 585.77,-84.8"/>
<text text-anchor="middle" x="511" y="-62.6" font-family="Times,serif" font-size="14.00">RegistrationComponent</text>
</g>
<!-- RegistrationComponent&#45;&gt;AppModule -->
<g id="edge12" class="edge">
<title>RegistrationComponent&#45;&gt;AppModule</title>
<path fill="none" stroke="black" d="M511,-84.91C511,-104.14 511,-131.8 511,-131.8 511,-131.8 1028.16,-131.8 1028.16,-131.8"/>
<polygon fill="black" stroke="black" points="1028.16,-135.3 1038.16,-131.8 1028.16,-128.3 1028.16,-135.3"/>
</g>
<!-- TituloComponent -->
<g id="node13" class="node">
<title>TituloComponent</title>
<polygon fill="#ffffb3" stroke="black" points="417.56,-84.8 302.44,-84.8 302.44,-48.8 417.56,-48.8 417.56,-84.8"/>
<text text-anchor="middle" x="360" y="-62.6" font-family="Times,serif" font-size="14.00">TituloComponent</text>
</g>
<!-- TituloComponent&#45;&gt;AppModule -->
<g id="edge13" class="edge">
<title>TituloComponent&#45;&gt;AppModule</title>
<path fill="none" stroke="black" d="M360,-84.83C360,-105.57 360,-136.8 360,-136.8 360,-136.8 1028.18,-136.8 1028.18,-136.8"/>
<polygon fill="black" stroke="black" points="1028.18,-140.3 1038.18,-136.8 1028.18,-133.3 1028.18,-140.3"/>
</g>
<!-- UserComponent -->
<g id="node14" class="node">
<title>UserComponent</title>
<polygon fill="#ffffb3" stroke="black" points="283.76,-84.8 176.24,-84.8 176.24,-48.8 283.76,-48.8 283.76,-84.8"/>
<text text-anchor="middle" x="230" y="-62.6" font-family="Times,serif" font-size="14.00">UserComponent</text>
</g>
<!-- UserComponent&#45;&gt;AppModule -->
<g id="edge14" class="edge">
<title>UserComponent&#45;&gt;AppModule</title>
<path fill="none" stroke="black" d="M230,-85.09C230,-107.01 230,-140.8 230,-140.8 230,-140.8 1028.14,-140.8 1028.14,-140.8"/>
<polygon fill="black" stroke="black" points="1028.14,-144.3 1038.14,-140.8 1028.14,-137.3 1028.14,-144.3"/>
</g>
<!-- AppComponent  -->
<g id="node17" class="node">
<title>AppComponent </title>
<polygon fill="#80b1d3" stroke="black" points="1134.44,-214.8 1025.56,-214.8 1025.56,-178.8 1134.44,-178.8 1134.44,-214.8"/>
<text text-anchor="middle" x="1080" y="-192.6" font-family="Times,serif" font-size="14.00">AppComponent </text>
</g>
<!-- AppModule&#45;&gt;AppComponent  -->
<g id="edge16" class="edge">
<title>AppModule&#45;&gt;AppComponent </title>
<path fill="none" stroke="black" stroke-dasharray="1,5" d="M1080,-149.91C1080,-149.91 1080,-168.79 1080,-168.79"/>
<polygon fill="black" stroke="black" points="1076.5,-168.79 1080,-178.79 1083.5,-168.79 1076.5,-168.79"/>
</g>
<!-- AppRoutingModule -->
<g id="node16" class="node">
<title>AppRoutingModule</title>
<polygon fill="#8dd3c7" stroke="black" points="152.27,-84.8 149.27,-88.8 128.27,-88.8 125.27,-84.8 23.73,-84.8 23.73,-48.8 152.27,-48.8 152.27,-84.8"/>
<text text-anchor="middle" x="88" y="-62.6" font-family="Times,serif" font-size="14.00">AppRoutingModule</text>
</g>
<!-- AppRoutingModule&#45;&gt;AppModule -->
<g id="edge15" class="edge">
<title>AppRoutingModule&#45;&gt;AppModule</title>
<path fill="none" stroke="black" d="M88,-85.12C88,-108.46 88,-145.8 88,-145.8 88,-145.8 1028.32,-145.8 1028.32,-145.8"/>
<polygon fill="black" stroke="black" points="1028.32,-149.3 1038.32,-145.8 1028.32,-142.3 1028.32,-149.3"/>
</g>
</g>
</svg>
